<?xml version="1.0" encoding="utf-8"?>
<!-- Generator: Adobe Illustrator 15.0.0, SVG Export Plug-In . SVG Version: 6.00 Build 0)  -->
<!DOCTYPE svg PUBLIC "-//W3C//DTD SVG 1.1//EN" "http://www.w3.org/Graphics/SVG/1.1/DTD/svg11.dtd">
<svg version="1.1" id="Layer_1" xmlns="http://www.w3.org/2000/svg" xmlns:xlink="http://www.w3.org/1999/xlink" x="0px" y="0px"
	 width="14.17px" height="14.17px" viewBox="0 0 14.17 14.17" enable-background="new 0 0 14.17 14.17" xml:space="preserve">
<g>
	<path fill-rule="evenodd" clip-rule="evenodd" fill="#445468" d="M12.734,8.859c0-0.827,0-1.654,0-2.48
		c0-1.469,0.113-2.606-0.501-3.482c-0.479-0.682-1.173-1.146-2.095-1.39C9.6,1.365,8.845,1.44,8.204,1.44
		C7.152,1.438,6.015,1.409,4.927,1.417C4.812,1.487,4.58,1.405,4.426,1.44C4.229,1.478,4.031,1.515,3.834,1.554
		C2.763,1.899,1.905,2.62,1.559,3.692c-0.23,0.711-0.114,2.114-0.114,3.027c0,0.759,0,1.518,0,2.277c0,0.41-0.044,0.883,0.046,1.229
		c0.338,1.292,1.243,2.081,2.527,2.435c0.418,0.117,0.934,0.042,1.433,0.068c0.669,0.037,1.433,0.023,2.14,0.023
		c1.416-0.001,2.723,0.038,3.598-0.5c0.717-0.443,1.258-1.109,1.501-2.026C12.795,9.826,12.742,9.302,12.734,8.859z M11.711,10.431
		c-0.182,0.423-0.539,0.79-0.912,1.024c-0.773,0.49-1.943,0.432-3.209,0.432c-0.551,0-1.148-0.012-1.661-0.021
		c-0.595-0.014-1.306,0.078-1.798-0.07c-0.857-0.254-1.504-0.826-1.775-1.662c-0.159-0.483-0.07-1.377-0.07-1.978
		C2.294,7.661,2.302,7.167,2.31,6.673c0-0.529,0-1.061,0-1.592C2.248,4.667,2.295,4.165,2.422,3.853
		C2.697,3.178,3.237,2.7,3.925,2.44C4.115,2.396,4.305,2.35,4.494,2.304C4.6,2.28,4.738,2.327,4.812,2.281c0.796,0,1.595,0,2.391,0
		c0.382,0,0.865-0.05,1.206,0.022c0.417,0,0.836,0,1.253,0c0.691,0.152,1.301,0.365,1.662,0.843c0.25,0.332,0.436,0.654,0.545,1.138
		c0,1.296,0,2.595,0,3.891C11.996,8.764,11.881,10.033,11.711,10.431z"/>
	<path fill-rule="evenodd" clip-rule="evenodd" fill="#445468" d="M10.275,3.488c-0.089-0.038-0.24-0.027-0.363-0.022
		C9.568,3.731,9.471,3.674,9.525,4.285c0.052,0.056,0.08,0.156,0.137,0.204c0.267,0.225,0.721,0.141,0.887-0.113
		C10.77,4.038,10.521,3.59,10.275,3.488z"/>
	<path fill-rule="evenodd" clip-rule="evenodd" fill="#445468" d="M7.703,4.307c-0.262-0.074-0.612-0.05-0.932-0.044
		C6.7,4.307,6.591,4.282,6.498,4.307C6.277,4.369,6.061,4.442,5.86,4.535C5.29,4.797,4.828,5.376,4.586,5.969
		C4.541,6.159,4.494,6.348,4.45,6.538C4.373,6.869,4.471,7.319,4.541,7.54c0.292,0.913,0.748,1.417,1.593,1.774
		c0.265,0.111,0.85,0.28,1.298,0.183C8.464,9.27,9.199,8.78,9.57,7.902C9.658,7.696,9.699,7.452,9.753,7.22
		c0.101-0.439-0.052-0.96-0.159-1.229C9.239,5.116,8.662,4.574,7.703,4.307z M8.864,7.129C8.666,7.99,8.219,8.436,7.361,8.633
		c-0.319,0.072-0.69-0.041-0.887-0.115C5.69,8.221,4.977,7.273,5.428,6.196c0.173-0.413,0.565-0.781,0.978-0.956
		c0.149-0.063,0.548-0.07,0.661-0.137c0.826,0.088,1.298,0.393,1.638,0.957c0.053,0.142,0.105,0.287,0.159,0.431
		C8.912,6.658,8.903,6.968,8.864,7.129z"/>
</g>
</svg>
