<?xml version="1.0" encoding="utf-8"?>
<!-- Generator: Adobe Illustrator 15.0.0, SVG Export Plug-In . SVG Version: 6.00 Build 0)  -->
<!DOCTYPE svg PUBLIC "-//W3C//DTD SVG 1.1//EN" "http://www.w3.org/Graphics/SVG/1.1/DTD/svg11.dtd">
<svg version="1.1" id="Layer_1" xmlns="http://www.w3.org/2000/svg" xmlns:xlink="http://www.w3.org/1999/xlink" x="0px" y="0px"
	 width="85.04px" height="56.69px" viewBox="0 0 85.04 56.69" enable-background="new 0 0 85.04 56.69" xml:space="preserve">
<g>
	<g>
		<line fill="none" stroke="#445468" stroke-width="0.5" stroke-miterlimit="10" x1="45.275" y1="36.443" x2="45.275" y2="33.832"/>
		<line fill="none" stroke="#445468" stroke-width="0.5" stroke-miterlimit="10" x1="45.275" y1="31.611" x2="45.275" y2="33.311"/>
		<line fill="none" stroke="#445468" stroke-width="0.5" stroke-miterlimit="10" x1="38.664" y1="36.346" x2="38.664" y2="33.488"/>
		<line fill="none" stroke="#445468" stroke-width="0.5" stroke-miterlimit="10" x1="44.172" y1="29.996" x2="44.172" y2="34.715"/>
		<line fill="none" stroke="#445468" stroke-width="0.5" stroke-miterlimit="10" x1="44.172" y1="35.264" x2="44.172" y2="45.199"/>
		<line fill="none" stroke="#445468" stroke-width="0.5" stroke-miterlimit="10" x1="37.561" y1="33.465" x2="37.561" y2="36.414"/>
		<line fill="none" stroke="#445468" stroke-width="0.5" stroke-miterlimit="10" x1="46.377" y1="37.619" x2="46.377" y2="34.736"/>
		<line fill="none" stroke="#445468" stroke-width="0.5" stroke-miterlimit="10" x1="47.479" y1="35.723" x2="47.479" y2="40.254"/>
		<line fill="none" stroke="#445468" stroke-width="0.5" stroke-miterlimit="10" x1="50.783" y1="37.781" x2="50.783" y2="34.764"/>
		<line fill="none" stroke="#445468" stroke-width="0.5" stroke-miterlimit="10" x1="48.578" y1="42.4" x2="48.578" y2="36.711"/>
		<line fill="none" stroke="#445468" stroke-width="0.5" stroke-miterlimit="10" x1="49.682" y1="34.111" x2="49.682" y2="41.289"/>
		<line fill="none" stroke="#445468" stroke-width="0.5" stroke-miterlimit="10" x1="45.275" y1="44.822" x2="45.275" y2="38.391"/>
		<line fill="none" stroke="#445468" stroke-width="0.5" stroke-miterlimit="10" x1="46.377" y1="41.057" x2="46.377" y2="44.182"/>
		<line fill="none" stroke="#445468" stroke-width="0.5" stroke-miterlimit="10" x1="39.765" y1="36.58" x2="39.765" y2="33.561"/>
		<line fill="none" stroke="#445468" stroke-width="0.5" stroke-miterlimit="10" x1="46.377" y1="34.141" x2="46.377" y2="31.15"/>
		<line fill="none" stroke="#445468" stroke-width="0.5" stroke-miterlimit="10" x1="41.968" y1="45.779" x2="41.968" y2="41.754"/>
		<line fill="none" stroke="#445468" stroke-width="0.5" stroke-miterlimit="10" x1="40.867" y1="33.641" x2="40.867" y2="45.975"/>
		<line fill="none" stroke="#445468" stroke-width="0.5" stroke-miterlimit="10" x1="39.765" y1="46.082" x2="39.765" y2="36.992"/>
		<line fill="none" stroke="#445468" stroke-width="0.5" stroke-miterlimit="10" x1="38.664" y1="37.195" x2="38.664" y2="46.182"/>
		<line fill="none" stroke="#445468" stroke-width="0.5" stroke-miterlimit="10" x1="43.072" y1="39.609" x2="43.072" y2="29.064"/>
		<line fill="none" stroke="#445468" stroke-width="0.5" stroke-miterlimit="10" x1="41.968" y1="38.992" x2="41.968" y2="28.831"/>
		<line fill="none" stroke="#445468" stroke-width="0.5" stroke-miterlimit="10" x1="37.561" y1="37.451" x2="37.561" y2="46.322"/>
		<line fill="none" stroke="#445468" stroke-width="0.5" stroke-miterlimit="10" x1="50.783" y1="34.436" x2="50.783" y2="32.742"/>
		<line fill="none" stroke="#445468" stroke-width="0.5" stroke-miterlimit="10" x1="49.682" y1="33.502" x2="49.682" y2="31.578"/>
		<line fill="none" stroke="#445468" stroke-width="0.5" stroke-miterlimit="10" x1="48.578" y1="36.094" x2="48.578" y2="33.455"/>
		<line fill="none" stroke="#445468" stroke-width="0.5" stroke-miterlimit="10" x1="47.479" y1="34.928" x2="47.479" y2="31.035"/>
		<line fill="none" stroke="#445468" stroke-width="0.5" stroke-miterlimit="10" x1="48.578" y1="33.188" x2="48.578" y2="31.117"/>
		<line fill="none" stroke="#445468" stroke-width="0.5" stroke-miterlimit="10" x1="35.358" y1="31.895" x2="35.358" y2="33.021"/>
		<line fill="none" stroke="#445468" stroke-width="0.5" stroke-miterlimit="10" x1="38.664" y1="32.605" x2="38.664" y2="30.131"/>
		<line fill="none" stroke="#445468" stroke-width="0.5" stroke-miterlimit="10" x1="38.664" y1="29.873" x2="38.664" y2="29.121"/>
		<line fill="none" stroke="#445468" stroke-width="0.5" stroke-miterlimit="10" x1="36.461" y1="32.75" x2="36.461" y2="30.342"/>
		<line fill="none" stroke="#445468" stroke-width="0.5" stroke-miterlimit="10" x1="37.561" y1="29.576" x2="37.561" y2="32.615"/>
		<line fill="none" stroke="#445468" stroke-width="0.5" stroke-miterlimit="10" x1="40.867" y1="28.772" x2="40.867" y2="30.391"/>
		<line fill="none" stroke="#445468" stroke-width="0.5" stroke-miterlimit="10" x1="39.765" y1="30.088" x2="39.765" y2="28.868"/>
		<line fill="none" stroke="#445468" stroke-width="0.5" stroke-miterlimit="10" x1="36.461" y1="33.523" x2="36.461" y2="36.641"/>
		<line fill="none" stroke="#445468" stroke-width="0.5" stroke-miterlimit="10" x1="34.257" y1="38.717" x2="34.257" y2="41.803"/>
		<line fill="none" stroke="#445468" stroke-width="0.5" stroke-miterlimit="10" x1="34.257" y1="34.92" x2="34.257" y2="37.172"/>
		<line fill="none" stroke="#445468" stroke-width="0.5" stroke-miterlimit="10" x1="35.358" y1="36.93" x2="35.358" y2="33.771"/>
		<line fill="none" stroke="#445468" stroke-width="0.5" stroke-miterlimit="10" x1="39.765" y1="32.736" x2="39.765" y2="30.621"/>
		<line fill="none" stroke="#445468" stroke-width="0.5" stroke-miterlimit="10" x1="40.867" y1="30.996" x2="40.867" y2="33.059"/>
		<line fill="none" stroke="#445468" stroke-width="0.5" stroke-miterlimit="10" x1="36.461" y1="46.68" x2="36.461" y2="37.775"/>
		<line fill="none" stroke="#445468" stroke-width="0.5" stroke-miterlimit="10" x1="35.358" y1="44.447" x2="35.358" y2="38.188"/>
	</g>
	<g>
		<g>
			<path fill="#445468" d="M10.005,17.13c0,0.281-0.053,0.547-0.158,0.803c-0.108,0.255-0.254,0.478-0.44,0.67
				C9.218,18.792,9,18.945,8.75,19.061c-0.249,0.113-0.519,0.171-0.809,0.171c-0.245,0-0.495-0.035-0.75-0.103
				c-0.256-0.067-0.484-0.184-0.688-0.35c-0.204-0.164-0.373-0.382-0.502-0.656c-0.134-0.271-0.199-0.614-0.199-1.03v-4.991
				c0-0.298,0.051-0.574,0.152-0.828c0.102-0.255,0.246-0.477,0.435-0.663c0.184-0.187,0.406-0.333,0.667-0.44
				c0.258-0.104,0.546-0.159,0.861-0.159c0.297,0,0.572,0.054,0.826,0.159c0.254,0.107,0.475,0.256,0.663,0.447
				c0.187,0.19,0.332,0.419,0.44,0.688c0.105,0.266,0.158,0.557,0.158,0.871v0.511H8.708v-0.432c0-0.256-0.074-0.478-0.218-0.665
				c-0.145-0.185-0.341-0.279-0.587-0.279c-0.322,0-0.538,0.101-0.642,0.3C7.156,11.81,7.1,12.061,7.1,12.368v4.637
				c0,0.261,0.06,0.483,0.172,0.661c0.116,0.179,0.321,0.267,0.618,0.267c0.085,0,0.178-0.014,0.275-0.043
				c0.098-0.031,0.187-0.08,0.267-0.146c0.078-0.069,0.146-0.163,0.197-0.281c0.051-0.121,0.078-0.268,0.078-0.446v-0.446h1.298
				V17.13z"/>
			<path fill="#445468" d="M10.986,12.229c0-0.366,0.064-0.687,0.188-0.969c0.128-0.281,0.297-0.509,0.505-0.695
				c0.207-0.182,0.442-0.318,0.7-0.412c0.259-0.093,0.52-0.142,0.784-0.142c0.26,0,0.522,0.049,0.783,0.142
				c0.259,0.093,0.491,0.229,0.699,0.412c0.209,0.186,0.375,0.414,0.502,0.695c0.129,0.282,0.192,0.603,0.192,0.969v4.788
				c0,0.373-0.063,0.698-0.192,0.973c-0.127,0.277-0.293,0.505-0.502,0.688c-0.208,0.183-0.44,0.321-0.699,0.414
				c-0.261,0.093-0.523,0.14-0.783,0.14c-0.265,0-0.525-0.047-0.784-0.14c-0.258-0.093-0.493-0.231-0.7-0.414
				c-0.208-0.183-0.377-0.411-0.505-0.688c-0.124-0.275-0.188-0.6-0.188-0.973V12.229z M12.285,17.017
				c0,0.313,0.085,0.545,0.261,0.695c0.173,0.147,0.379,0.221,0.618,0.221c0.237,0,0.442-0.074,0.616-0.221
				c0.174-0.149,0.263-0.381,0.263-0.695v-4.788c0-0.313-0.089-0.547-0.263-0.695c-0.174-0.148-0.379-0.223-0.616-0.223
				c-0.239,0-0.445,0.075-0.618,0.223c-0.176,0.147-0.261,0.381-0.261,0.695V17.017z"/>
			<path fill="#445468" d="M16.435,10.088h1.25l1.958,5.464h0.026v-5.464h1.3v9.067h-1.222l-1.986-5.45h-0.025v5.45h-1.301V10.088z"
				/>
			<path fill="#445468" d="M26.344,12.7h-1.301v-0.293c0-0.297-0.067-0.555-0.209-0.77c-0.141-0.218-0.375-0.326-0.706-0.326
				c-0.18,0-0.325,0.035-0.44,0.102c-0.114,0.07-0.203,0.156-0.267,0.263c-0.063,0.106-0.11,0.229-0.136,0.366
				c-0.025,0.143-0.035,0.288-0.035,0.44c0,0.179,0.006,0.33,0.019,0.453c0.013,0.123,0.042,0.229,0.096,0.319
				c0.051,0.088,0.125,0.167,0.224,0.236c0.096,0.066,0.231,0.134,0.4,0.202l0.991,0.396c0.288,0.11,0.523,0.239,0.701,0.388
				c0.178,0.149,0.315,0.322,0.413,0.522c0.098,0.199,0.165,0.429,0.199,0.688c0.031,0.258,0.051,0.555,0.051,0.885
				c0,0.381-0.038,0.737-0.114,1.063c-0.076,0.326-0.204,0.607-0.377,0.841c-0.174,0.234-0.407,0.419-0.692,0.552
				c-0.291,0.138-0.645,0.206-1.06,0.206c-0.313,0-0.605-0.055-0.879-0.167c-0.269-0.11-0.504-0.26-0.698-0.451
				c-0.195-0.192-0.35-0.418-0.466-0.682c-0.114-0.264-0.174-0.546-0.174-0.853v-0.484h1.302v0.409c0,0.235,0.07,0.45,0.21,0.643
				c0.14,0.19,0.375,0.285,0.705,0.285c0.221,0,0.395-0.032,0.517-0.094c0.123-0.064,0.217-0.155,0.282-0.269
				c0.062-0.114,0.102-0.256,0.12-0.426c0.016-0.169,0.023-0.358,0.023-0.56c0-0.238-0.008-0.433-0.023-0.587
				c-0.019-0.154-0.055-0.274-0.109-0.368c-0.056-0.094-0.132-0.169-0.229-0.23c-0.097-0.058-0.227-0.123-0.39-0.19l-0.927-0.383
				c-0.562-0.229-0.937-0.531-1.129-0.909c-0.19-0.379-0.286-0.852-0.286-1.422c0-0.336,0.047-0.661,0.142-0.966
				c0.094-0.306,0.231-0.569,0.413-0.79c0.181-0.22,0.413-0.397,0.692-0.528c0.282-0.131,0.608-0.198,0.983-0.198
				c0.321,0,0.616,0.06,0.883,0.178c0.267,0.121,0.497,0.276,0.688,0.473c0.19,0.195,0.336,0.414,0.438,0.657
				c0.104,0.242,0.155,0.49,0.155,0.742V12.7z"/>
			<path fill="#445468" d="M28.164,11.311h-1.502v-1.222h4.304v1.222h-1.502v7.845h-1.3V11.311z"/>
			<path fill="#445468" d="M32.278,10.088h1.082l2.022,9.067h-1.296l-0.384-1.947h-1.768l-0.382,1.947h-1.302L32.278,10.088z
				 M32.827,12.7h-0.027l-0.636,3.285h1.298L32.827,12.7z"/>
			<path fill="#445468" d="M35.971,10.088h1.245l1.961,5.464h0.025v-5.464h1.3v9.067h-1.222l-1.986-5.45h-0.025v5.45h-1.298V10.088z
				"/>
			<path fill="#445468" d="M45.801,17.13c0,0.281-0.053,0.547-0.158,0.803s-0.252,0.478-0.438,0.67
				c-0.189,0.189-0.408,0.342-0.658,0.458c-0.248,0.113-0.52,0.171-0.81,0.171c-0.248,0-0.496-0.035-0.752-0.103
				c-0.252-0.067-0.48-0.184-0.687-0.35c-0.203-0.164-0.372-0.382-0.504-0.656c-0.131-0.271-0.196-0.614-0.196-1.03v-4.991
				c0-0.298,0.051-0.574,0.152-0.828c0.104-0.255,0.245-0.477,0.434-0.663c0.187-0.187,0.409-0.333,0.667-0.44
				c0.259-0.104,0.545-0.159,0.86-0.159c0.298,0,0.576,0.054,0.832,0.159c0.252,0.107,0.473,0.256,0.662,0.447
				c0.186,0.19,0.332,0.419,0.438,0.688c0.105,0.266,0.158,0.557,0.158,0.871v0.511h-1.297v-0.432c0-0.256-0.072-0.478-0.217-0.665
				c-0.145-0.185-0.343-0.279-0.586-0.279c-0.324,0-0.538,0.101-0.644,0.3c-0.106,0.2-0.161,0.451-0.161,0.758v4.637
				c0,0.261,0.057,0.483,0.172,0.661c0.114,0.179,0.319,0.267,0.618,0.267c0.085,0,0.176-0.014,0.275-0.043
				c0.099-0.031,0.187-0.08,0.271-0.146c0.078-0.069,0.145-0.163,0.195-0.281c0.051-0.121,0.076-0.268,0.076-0.446v-0.446h1.297
				V17.13z"/>
			<path fill="#445468" d="M46.857,10.088h3.871v1.222h-2.57v2.661h2.24v1.224h-2.24v2.662h2.57v1.298h-3.871V10.088z"/>
		</g>
		<g>
			<path fill="#445468" d="M54.686,12.229c0-0.366,0.062-0.688,0.189-0.968c0.129-0.281,0.295-0.511,0.502-0.696
				c0.209-0.182,0.443-0.318,0.703-0.412c0.258-0.092,0.52-0.141,0.783-0.141c0.262,0,0.521,0.049,0.783,0.141
				c0.256,0.093,0.49,0.229,0.699,0.412c0.209,0.185,0.377,0.415,0.504,0.696c0.129,0.279,0.189,0.602,0.189,0.968v4.786
				c0,0.376-0.061,0.699-0.189,0.976c-0.127,0.276-0.295,0.506-0.504,0.688c-0.209,0.184-0.443,0.322-0.699,0.414
				c-0.262,0.093-0.521,0.14-0.783,0.14c-0.264,0-0.525-0.047-0.783-0.14c-0.26-0.092-0.494-0.23-0.703-0.414
				c-0.207-0.181-0.373-0.411-0.502-0.688c-0.127-0.277-0.189-0.6-0.189-0.976V12.229z M55.984,17.015
				c0,0.317,0.084,0.548,0.26,0.696c0.176,0.149,0.383,0.223,0.619,0.223c0.238,0,0.441-0.074,0.615-0.223
				c0.176-0.147,0.262-0.378,0.262-0.696v-4.786c0-0.313-0.086-0.547-0.262-0.695c-0.174-0.148-0.377-0.222-0.615-0.222
				c-0.236,0-0.443,0.074-0.619,0.222c-0.176,0.147-0.26,0.381-0.26,0.695V17.015z"/>
			<path fill="#445468" d="M64.389,17.117c0,0.299-0.057,0.574-0.166,0.828c-0.109,0.257-0.262,0.478-0.449,0.669
				c-0.191,0.191-0.416,0.341-0.67,0.452c-0.256,0.11-0.527,0.165-0.816,0.165s-0.559-0.055-0.814-0.165
				c-0.254-0.111-0.479-0.261-0.668-0.452c-0.191-0.192-0.342-0.412-0.453-0.669c-0.109-0.254-0.164-0.529-0.164-0.828v-7.026h1.297
				v6.9c0,0.323,0.078,0.558,0.23,0.713c0.154,0.153,0.342,0.229,0.572,0.229s0.42-0.076,0.572-0.229
				c0.154-0.155,0.229-0.39,0.229-0.713v-6.9h1.301V17.117z"/>
			<path fill="#445468" d="M65.613,10.091h1.297v7.767h2.574v1.299h-3.871V10.091z"/>
			<path fill="#445468" d="M70.324,10.091h3.869v1.221h-2.572v2.661h2.242v1.224h-2.242v2.661h2.572v1.299h-3.869V10.091z"/>
			<path fill="#445468" d="M79.238,12.699h-1.301v-0.292c0-0.296-0.07-0.553-0.209-0.77c-0.141-0.216-0.377-0.325-0.707-0.325
				c-0.178,0-0.326,0.034-0.441,0.102c-0.113,0.07-0.203,0.156-0.266,0.263c-0.066,0.104-0.109,0.228-0.135,0.366
				c-0.025,0.142-0.037,0.287-0.037,0.442c0,0.178,0.006,0.328,0.016,0.451c0.016,0.123,0.047,0.23,0.098,0.319
				c0.053,0.089,0.125,0.167,0.223,0.236c0.098,0.066,0.232,0.135,0.402,0.203l0.994,0.394c0.287,0.111,0.52,0.241,0.701,0.39
				c0.178,0.147,0.314,0.322,0.412,0.522c0.098,0.199,0.164,0.426,0.197,0.687c0.033,0.258,0.053,0.554,0.053,0.884
				c0,0.381-0.041,0.739-0.117,1.065c-0.076,0.327-0.203,0.605-0.375,0.839c-0.172,0.234-0.406,0.418-0.695,0.554
				c-0.289,0.136-0.641,0.204-1.057,0.204c-0.314,0-0.605-0.055-0.877-0.165c-0.273-0.111-0.506-0.261-0.701-0.452
				c-0.195-0.192-0.35-0.417-0.465-0.681c-0.113-0.264-0.174-0.547-0.174-0.854v-0.486h1.301v0.411c0,0.236,0.07,0.451,0.211,0.641
				c0.139,0.192,0.377,0.288,0.705,0.288c0.219,0,0.395-0.033,0.518-0.096c0.121-0.063,0.217-0.154,0.277-0.268
				c0.066-0.113,0.104-0.255,0.123-0.426c0.018-0.168,0.025-0.356,0.025-0.561c0-0.236-0.008-0.432-0.025-0.584
				c-0.02-0.155-0.053-0.275-0.107-0.37c-0.057-0.094-0.133-0.169-0.23-0.23c-0.098-0.059-0.227-0.121-0.389-0.188l-0.93-0.382
				c-0.559-0.23-0.936-0.534-1.127-0.913c-0.189-0.377-0.287-0.848-0.287-1.418c0-0.338,0.047-0.662,0.143-0.968
				c0.092-0.306,0.23-0.566,0.414-0.79c0.182-0.219,0.412-0.395,0.693-0.528c0.279-0.13,0.605-0.197,0.98-0.197
				c0.322,0,0.617,0.062,0.885,0.178c0.268,0.12,0.498,0.276,0.686,0.471c0.193,0.196,0.34,0.415,0.441,0.658
				c0.102,0.238,0.154,0.489,0.154,0.743V12.699z"/>
		</g>
	</g>
</g>
</svg>
