<?xml version="1.0" encoding="utf-8"?>
<!-- Generator: Adobe Illustrator 15.0.0, SVG Export Plug-In . SVG Version: 6.00 Build 0)  -->
<!DOCTYPE svg PUBLIC "-//W3C//DTD SVG 1.1//EN" "http://www.w3.org/Graphics/SVG/1.1/DTD/svg11.dtd">
<svg version="1.1" id="Layer_1" xmlns="http://www.w3.org/2000/svg" xmlns:xlink="http://www.w3.org/1999/xlink" x="0px" y="0px"
	 width="85.04px" height="56.69px" viewBox="0 0 85.04 56.69" enable-background="new 0 0 85.04 56.69" xml:space="preserve">
<g>
	<g>
		<path fill="#445468" d="M12.825,20.069c0,0.452-0.087,0.884-0.255,1.297c-0.174,0.415-0.41,0.773-0.712,1.084
			c-0.305,0.309-0.658,0.554-1.062,0.74c-0.405,0.185-0.841,0.278-1.31,0.278c-0.397,0-0.802-0.055-1.213-0.167
			c-0.413-0.107-0.784-0.297-1.113-0.564c-0.331-0.267-0.603-0.624-0.812-1.063c-0.216-0.438-0.324-0.993-0.324-1.668v-8.077
			c0-0.481,0.084-0.93,0.249-1.34c0.165-0.412,0.398-0.771,0.702-1.074c0.3-0.3,0.66-0.538,1.08-0.711
			c0.42-0.171,0.884-0.257,1.394-0.257c0.483,0,0.926,0.086,1.339,0.257c0.408,0.173,0.768,0.415,1.072,0.723
			c0.302,0.307,0.538,0.678,0.712,1.113c0.168,0.432,0.255,0.902,0.255,1.411v0.826h-2.101v-0.699c0-0.414-0.118-0.771-0.353-1.075
			c-0.231-0.301-0.55-0.453-0.948-0.453c-0.521,0-0.87,0.162-1.04,0.486c-0.169,0.324-0.259,0.73-0.259,1.225v7.504
			c0,0.423,0.095,0.782,0.279,1.067c0.187,0.292,0.519,0.434,0.999,0.434c0.139,0,0.286-0.021,0.444-0.069
			c0.158-0.052,0.302-0.128,0.433-0.239c0.129-0.11,0.236-0.261,0.32-0.453c0.08-0.194,0.124-0.434,0.124-0.721v-0.722h2.101V20.069
			z"/>
		<path fill="#445468" d="M14.411,12.135c0-0.591,0.104-1.111,0.309-1.567c0.205-0.452,0.478-0.824,0.813-1.124
			c0.338-0.292,0.717-0.517,1.137-0.667c0.417-0.15,0.84-0.228,1.267-0.228c0.423,0,0.847,0.078,1.267,0.228
			c0.418,0.15,0.797,0.375,1.133,0.667c0.336,0.299,0.608,0.671,0.812,1.124c0.207,0.457,0.311,0.976,0.311,1.567v7.75
			c0,0.605-0.104,1.128-0.311,1.574c-0.205,0.451-0.476,0.817-0.812,1.116c-0.335,0.293-0.715,0.517-1.133,0.667
			c-0.42,0.151-0.844,0.227-1.267,0.227c-0.427,0-0.85-0.076-1.267-0.227c-0.42-0.15-0.799-0.375-1.137-0.667
			c-0.335-0.298-0.608-0.665-0.813-1.116c-0.205-0.446-0.309-0.969-0.309-1.574V12.135z M16.514,19.885
			c0,0.506,0.139,0.883,0.421,1.122c0.283,0.238,0.616,0.359,1.002,0.359c0.384,0,0.716-0.121,0.999-0.359
			c0.281-0.239,0.422-0.616,0.422-1.122v-7.75c0-0.505-0.141-0.884-0.422-1.123c-0.282-0.239-0.615-0.361-0.999-0.361
			c-0.386,0-0.719,0.122-1.002,0.361c-0.282,0.239-0.421,0.617-0.421,1.123V19.885z"/>
		<path fill="#445468" d="M23.232,8.674h2.019l3.173,8.841h0.041V8.674h2.104v14.672h-1.978l-3.215-8.819h-0.042v8.819h-2.102V8.674
			z"/>
		<path fill="#445468" d="M39.266,12.9h-2.104v-0.476c0-0.48-0.112-0.897-0.342-1.247c-0.225-0.353-0.606-0.526-1.141-0.526
			c-0.289,0-0.528,0.055-0.709,0.165c-0.188,0.112-0.333,0.252-0.433,0.423c-0.105,0.171-0.177,0.371-0.218,0.595
			c-0.042,0.23-0.06,0.466-0.06,0.712c0,0.289,0.009,0.533,0.03,0.73c0.019,0.202,0.07,0.375,0.154,0.519
			c0.082,0.144,0.201,0.269,0.362,0.382c0.154,0.107,0.374,0.216,0.649,0.327l1.603,0.641c0.469,0.18,0.847,0.388,1.136,0.629
			c0.289,0.24,0.511,0.52,0.668,0.843c0.159,0.323,0.266,0.695,0.319,1.114c0.054,0.417,0.085,0.897,0.085,1.432
			c0,0.619-0.062,1.192-0.184,1.721c-0.127,0.528-0.329,0.982-0.612,1.361c-0.278,0.378-0.655,0.675-1.121,0.893
			c-0.47,0.222-1.04,0.332-1.713,0.332c-0.508,0-0.98-0.089-1.42-0.269c-0.438-0.177-0.818-0.422-1.133-0.729
			c-0.316-0.311-0.564-0.677-0.753-1.105c-0.185-0.426-0.279-0.883-0.279-1.38v-0.782h2.104v0.661c0,0.382,0.114,0.726,0.339,1.042
			c0.227,0.308,0.61,0.459,1.142,0.459c0.358,0,0.638-0.051,0.839-0.152c0.196-0.104,0.346-0.25,0.45-0.434
			c0.104-0.189,0.169-0.416,0.196-0.69c0.027-0.274,0.041-0.578,0.041-0.907c0-0.385-0.014-0.701-0.041-0.949
			c-0.027-0.25-0.086-0.446-0.172-0.597c-0.094-0.151-0.218-0.274-0.375-0.373c-0.157-0.091-0.367-0.196-0.627-0.308l-1.503-0.618
			c-0.909-0.372-1.517-0.862-1.825-1.471c-0.309-0.613-0.464-1.379-0.464-2.301c0-0.548,0.073-1.07,0.228-1.566
			c0.151-0.493,0.373-0.919,0.668-1.275c0.295-0.358,0.67-0.643,1.123-0.856c0.455-0.213,0.982-0.32,1.588-0.32
			c0.521,0,1,0.095,1.43,0.29c0.432,0.193,0.807,0.446,1.115,0.764c0.309,0.315,0.545,0.667,0.711,1.061
			c0.163,0.39,0.248,0.795,0.248,1.204V12.9z"/>
		<path fill="#445468" d="M42.211,10.651H39.78V8.674h6.963v1.978h-2.429v12.694h-2.104V10.651z"/>
		<path fill="#445468" d="M48.869,8.674h1.748l3.278,14.672h-2.103l-0.617-3.151h-2.863l-0.621,3.151h-2.1L48.869,8.674z
			 M49.754,12.9h-0.039l-1.031,5.314h2.097L49.754,12.9z"/>
		<path fill="#445468" d="M54.841,8.674h2.021l3.173,8.841h0.041V8.674h2.098v14.672h-1.973l-3.215-8.819h-0.043v8.819h-2.103V8.674
			z"/>
		<path fill="#445468" d="M70.748,20.069c0,0.452-0.084,0.884-0.252,1.297c-0.174,0.415-0.413,0.773-0.715,1.084
			c-0.303,0.309-0.654,0.554-1.064,0.74c-0.4,0.185-0.836,0.278-1.308,0.278c-0.397,0-0.801-0.055-1.216-0.167
			c-0.408-0.107-0.777-0.297-1.108-0.564c-0.332-0.267-0.603-0.624-0.815-1.063c-0.215-0.438-0.319-0.993-0.319-1.668v-8.077
			c0-0.481,0.081-0.93,0.247-1.34c0.166-0.412,0.395-0.771,0.699-1.074c0.305-0.3,0.665-0.538,1.083-0.711
			c0.418-0.171,0.882-0.257,1.394-0.257c0.479,0,0.926,0.086,1.341,0.257c0.408,0.173,0.765,0.415,1.067,0.723
			c0.302,0.307,0.541,0.678,0.715,1.113c0.168,0.432,0.252,0.902,0.252,1.411v0.826h-2.1v-0.699c0-0.414-0.117-0.771-0.35-1.075
			c-0.234-0.301-0.551-0.453-0.948-0.453c-0.522,0-0.87,0.162-1.042,0.486c-0.17,0.324-0.258,0.73-0.258,1.225v7.504
			c0,0.423,0.094,0.782,0.279,1.067c0.184,0.292,0.519,0.434,0.998,0.434c0.137,0,0.287-0.021,0.448-0.069
			c0.157-0.052,0.298-0.128,0.431-0.239c0.133-0.11,0.236-0.261,0.318-0.453c0.084-0.194,0.123-0.434,0.123-0.721v-0.722h2.1V20.069
			z"/>
		<path fill="#445468" d="M72.458,8.674h6.268v1.978h-4.162v4.308h3.63v1.978h-3.63v4.308h4.162v2.102h-6.268V8.674z"/>
	</g>
	<g>
		<path fill="#445468" d="M6.057,33.217c0-0.594,0.104-1.115,0.309-1.566c0.205-0.453,0.477-0.829,0.814-1.127
			c0.335-0.292,0.716-0.516,1.135-0.667c0.416-0.149,0.84-0.228,1.267-0.228c0.423,0,0.846,0.078,1.268,0.228
			c0.416,0.151,0.795,0.375,1.132,0.667c0.336,0.298,0.609,0.674,0.813,1.127c0.209,0.451,0.309,0.973,0.309,1.566v7.744
			c0,0.609-0.1,1.132-0.309,1.579c-0.204,0.447-0.477,0.819-0.813,1.114c-0.336,0.293-0.716,0.516-1.132,0.67
			c-0.421,0.148-0.845,0.223-1.268,0.223c-0.427,0-0.851-0.074-1.267-0.223c-0.419-0.154-0.8-0.377-1.135-0.67
			c-0.337-0.295-0.609-0.667-0.814-1.114s-0.309-0.97-0.309-1.579V33.217z M8.157,40.961c0,0.514,0.141,0.886,0.423,1.123
			c0.282,0.243,0.619,0.364,1.001,0.364c0.388,0,0.716-0.121,0.999-0.364c0.281-0.237,0.422-0.609,0.422-1.123v-7.744
			c0-0.507-0.141-0.887-0.422-1.125c-0.283-0.238-0.611-0.359-0.999-0.359c-0.382,0-0.719,0.121-1.001,0.359
			c-0.283,0.238-0.423,0.618-0.423,1.125V40.961z"/>
		<path fill="#445468" d="M21.761,41.128c0,0.483-0.092,0.929-0.27,1.338c-0.179,0.417-0.423,0.774-0.73,1.085
			c-0.309,0.311-0.671,0.55-1.083,0.732c-0.413,0.178-0.854,0.264-1.32,0.264c-0.467,0-0.904-0.086-1.316-0.264
			c-0.414-0.183-0.774-0.422-1.083-0.732c-0.309-0.311-0.554-0.668-0.733-1.085c-0.178-0.409-0.266-0.854-0.266-1.338V29.756h2.102
			v11.167c0,0.522,0.124,0.904,0.369,1.151c0.249,0.25,0.554,0.374,0.927,0.374c0.373,0,0.683-0.124,0.928-0.374
			c0.248-0.247,0.371-0.629,0.371-1.151V29.756h2.104V41.128z"/>
		<path fill="#445468" d="M23.739,29.756h2.102v12.568h4.164v2.104h-6.265V29.756z"/>
		<path fill="#445468" d="M31.365,29.756h6.258v1.977h-4.159v4.309h3.628v1.976h-3.628v4.308h4.159v2.104h-6.258V29.756z"/>
		<path fill="#445468" d="M45.79,33.976h-2.108v-0.472c0-0.48-0.109-0.896-0.336-1.244c-0.227-0.353-0.609-0.527-1.142-0.527
			c-0.291,0-0.53,0.055-0.714,0.166c-0.186,0.111-0.329,0.251-0.434,0.423c-0.104,0.169-0.176,0.368-0.217,0.595
			c-0.039,0.229-0.06,0.463-0.06,0.712c0,0.289,0.012,0.532,0.026,0.729c0.025,0.202,0.074,0.374,0.161,0.52
			c0.081,0.144,0.2,0.269,0.356,0.381c0.158,0.105,0.376,0.219,0.652,0.328l1.609,0.637c0.463,0.18,0.843,0.391,1.129,0.631
			c0.29,0.238,0.512,0.521,0.67,0.845c0.155,0.321,0.268,0.69,0.32,1.112c0.051,0.417,0.085,0.896,0.085,1.43
			c0,0.619-0.066,1.195-0.188,1.725c-0.123,0.527-0.329,0.98-0.606,1.358c-0.28,0.38-0.658,0.676-1.124,0.896
			c-0.469,0.219-1.04,0.328-1.713,0.328c-0.508,0-0.98-0.086-1.423-0.264c-0.439-0.183-0.815-0.422-1.132-0.732
			s-0.564-0.674-0.752-1.103c-0.184-0.429-0.28-0.886-0.28-1.384v-0.781h2.106v0.66c0,0.385,0.114,0.73,0.338,1.041
			c0.226,0.309,0.609,0.464,1.143,0.464c0.357,0,0.64-0.053,0.838-0.155c0.196-0.104,0.35-0.248,0.451-0.437
			c0.105-0.183,0.166-0.411,0.199-0.687c0.025-0.273,0.035-0.579,0.035-0.908c0-0.384-0.01-0.699-0.035-0.947
			c-0.033-0.249-0.086-0.445-0.176-0.598c-0.092-0.152-0.217-0.274-0.375-0.371s-0.364-0.196-0.627-0.306l-1.501-0.62
			c-0.909-0.371-1.517-0.863-1.828-1.475c-0.308-0.611-0.464-1.375-0.464-2.297c0-0.549,0.076-1.07,0.23-1.568
			c0.15-0.492,0.371-0.916,0.668-1.275c0.295-0.357,0.67-0.641,1.122-0.855c0.454-0.211,0.98-0.32,1.587-0.32
			c0.521,0,1.002,0.1,1.435,0.289c0.429,0.193,0.806,0.447,1.108,0.764c0.314,0.316,0.549,0.669,0.714,1.062
			c0.165,0.388,0.25,0.793,0.25,1.203V33.976z"/>
	</g>
	<g>
		<line fill="none" stroke="#445468" stroke-width="0.5" stroke-miterlimit="10" x1="66.605" y1="35.405" x2="66.605" y2="32.154"/>
		<line fill="none" stroke="#445468" stroke-width="0.5" stroke-miterlimit="10" x1="66.605" y1="29.391" x2="66.605" y2="31.505"/>
		<line fill="none" stroke="#445468" stroke-width="0.5" stroke-miterlimit="10" x1="58.379" y1="35.283" x2="58.379" y2="31.728"/>
		<line fill="none" stroke="#445468" stroke-width="0.5" stroke-miterlimit="10" x1="65.231" y1="27.382" x2="65.231" y2="33.253"/>
		<line fill="none" stroke="#445468" stroke-width="0.5" stroke-miterlimit="10" x1="65.231" y1="33.936" x2="65.231" y2="46.3"/>
		<line fill="none" stroke="#445468" stroke-width="0.5" stroke-miterlimit="10" x1="57.006" y1="31.697" x2="57.006" y2="35.367"/>
		<line fill="none" stroke="#445468" stroke-width="0.5" stroke-miterlimit="10" x1="67.976" y1="36.866" x2="67.976" y2="33.279"/>
		<line fill="none" stroke="#445468" stroke-width="0.5" stroke-miterlimit="10" x1="69.347" y1="34.507" x2="69.347" y2="40.146"/>
		<line fill="none" stroke="#445468" stroke-width="0.5" stroke-miterlimit="10" x1="73.459" y1="37.069" x2="73.459" y2="33.313"/>
		<line fill="none" stroke="#445468" stroke-width="0.5" stroke-miterlimit="10" x1="70.715" y1="42.817" x2="70.715" y2="35.736"/>
		<line fill="none" stroke="#445468" stroke-width="0.5" stroke-miterlimit="10" x1="72.088" y1="32.502" x2="72.088" y2="41.434"/>
		<line fill="none" stroke="#445468" stroke-width="0.5" stroke-miterlimit="10" x1="66.605" y1="45.83" x2="66.605" y2="37.827"/>
		<line fill="none" stroke="#445468" stroke-width="0.5" stroke-miterlimit="10" x1="67.976" y1="41.145" x2="67.976" y2="45.033"/>
		<line fill="none" stroke="#445468" stroke-width="0.5" stroke-miterlimit="10" x1="59.747" y1="35.574" x2="59.747" y2="31.816"/>
		<line fill="none" stroke="#445468" stroke-width="0.5" stroke-miterlimit="10" x1="67.976" y1="32.538" x2="67.976" y2="28.817"/>
		<line fill="none" stroke="#445468" stroke-width="0.5" stroke-miterlimit="10" x1="62.49" y1="47.021" x2="62.49" y2="42.014"/>
		<line fill="none" stroke="#445468" stroke-width="0.5" stroke-miterlimit="10" x1="61.121" y1="31.916" x2="61.121" y2="47.264"/>
		<line fill="none" stroke="#445468" stroke-width="0.5" stroke-miterlimit="10" x1="59.747" y1="47.398" x2="59.747" y2="36.087"/>
		<line fill="none" stroke="#445468" stroke-width="0.5" stroke-miterlimit="10" x1="58.379" y1="36.34" x2="58.379" y2="47.522"/>
		<line fill="none" stroke="#445468" stroke-width="0.5" stroke-miterlimit="10" x1="63.863" y1="39.344" x2="63.863" y2="26.223"/>
		<line fill="none" stroke="#445468" stroke-width="0.5" stroke-miterlimit="10" x1="62.49" y1="38.575" x2="62.49" y2="25.931"/>
		<line fill="none" stroke="#445468" stroke-width="0.5" stroke-miterlimit="10" x1="57.006" y1="36.658" x2="57.006" y2="47.697"/>
		<line fill="none" stroke="#445468" stroke-width="0.5" stroke-miterlimit="10" x1="73.459" y1="32.905" x2="73.459" y2="30.798"/>
		<line fill="none" stroke="#445468" stroke-width="0.5" stroke-miterlimit="10" x1="72.088" y1="31.743" x2="72.088" y2="29.35"/>
		<line fill="none" stroke="#445468" stroke-width="0.5" stroke-miterlimit="10" x1="70.715" y1="34.969" x2="70.715" y2="31.687"/>
		<line fill="none" stroke="#445468" stroke-width="0.5" stroke-miterlimit="10" x1="69.347" y1="33.519" x2="69.347" y2="28.674"/>
		<line fill="none" stroke="#445468" stroke-width="0.5" stroke-miterlimit="10" x1="70.715" y1="31.352" x2="70.715" y2="28.776"/>
		<line fill="none" stroke="#445468" stroke-width="0.5" stroke-miterlimit="10" x1="54.264" y1="29.743" x2="54.264" y2="31.147"/>
		<line fill="none" stroke="#445468" stroke-width="0.5" stroke-miterlimit="10" x1="58.379" y1="30.628" x2="58.379" y2="27.549"/>
		<line fill="none" stroke="#445468" stroke-width="0.5" stroke-miterlimit="10" x1="58.379" y1="27.228" x2="58.379" y2="26.292"/>
		<line fill="none" stroke="#445468" stroke-width="0.5" stroke-miterlimit="10" x1="55.638" y1="30.808" x2="55.638" y2="27.811"/>
		<line fill="none" stroke="#445468" stroke-width="0.5" stroke-miterlimit="10" x1="57.006" y1="26.858" x2="57.006" y2="30.64"/>
		<line fill="none" stroke="#445468" stroke-width="0.5" stroke-miterlimit="10" x1="61.121" y1="25.858" x2="61.121" y2="27.873"/>
		<line fill="none" stroke="#445468" stroke-width="0.5" stroke-miterlimit="10" x1="59.747" y1="27.495" x2="59.747" y2="25.977"/>
		<line fill="none" stroke="#445468" stroke-width="0.5" stroke-miterlimit="10" x1="55.638" y1="31.771" x2="55.638" y2="35.649"/>
		<line fill="none" stroke="#445468" stroke-width="0.5" stroke-miterlimit="10" x1="52.894" y1="38.233" x2="52.894" y2="42.074"/>
		<line fill="none" stroke="#445468" stroke-width="0.5" stroke-miterlimit="10" x1="52.894" y1="33.508" x2="52.894" y2="36.311"/>
		<line fill="none" stroke="#445468" stroke-width="0.5" stroke-miterlimit="10" x1="54.264" y1="36.009" x2="54.264" y2="32.079"/>
		<line fill="none" stroke="#445468" stroke-width="0.5" stroke-miterlimit="10" x1="59.747" y1="30.792" x2="59.747" y2="28.158"/>
		<line fill="none" stroke="#445468" stroke-width="0.5" stroke-miterlimit="10" x1="61.121" y1="28.625" x2="61.121" y2="31.191"/>
		<line fill="none" stroke="#445468" stroke-width="0.5" stroke-miterlimit="10" x1="55.638" y1="48.142" x2="55.638" y2="37.062"/>
		<line fill="none" stroke="#445468" stroke-width="0.5" stroke-miterlimit="10" x1="54.264" y1="45.364" x2="54.264" y2="37.574"/>
	</g>
</g>
</svg>
