<?xml version="1.0" encoding="utf-8"?>
<!-- Generator: Adobe Illustrator 15.0.0, SVG Export Plug-In . SVG Version: 6.00 Build 0)  -->
<!DOCTYPE svg PUBLIC "-//W3C//DTD SVG 1.1//EN" "http://www.w3.org/Graphics/SVG/1.1/DTD/svg11.dtd">
<svg version="1.1" id="Layer_1" xmlns="http://www.w3.org/2000/svg" xmlns:xlink="http://www.w3.org/1999/xlink" x="0px" y="0px"
	 width="14.17px" height="14.17px" viewBox="0 0 14.17 14.17" enable-background="new 0 0 14.17 14.17" xml:space="preserve">
<path fill-rule="evenodd" clip-rule="evenodd" fill="#445468" d="M7.381,1.416c0.462,0.145,0.99,0.081,1.427,0.224
	c0.932,0.305,1.76,0.883,2.234,1.651c0.225,0.367,0.34,0.869,0.445,1.339c0,0.194,0,0.387,0,0.58
	c0.078,0.383-0.038,0.992-0.135,1.34c-0.412,1.473-1.02,2.608-2.455,3.035C8.227,9.783,7.389,9.643,6.935,9.361
	C6.722,9.229,6.593,9.041,6.31,8.96c0,0.029,0,0.06,0,0.089c-0.134,0.564-0.267,1.13-0.402,1.696
	c-0.191,0.517-0.446,1.099-0.758,1.518c-0.164,0.163-0.328,0.328-0.492,0.491c-0.014,0-0.029,0-0.044,0c0-0.031,0-0.059,0-0.088
	c-0.199-0.311-0.095-1.934,0-2.322c0.283-1.164,0.628-2.299,0.85-3.438C5.516,6.633,5.294,6.339,5.24,6.104
	C5.078,5.415,5.434,4.659,5.686,4.317c0.116-0.157,0.348-0.223,0.49-0.355C8.291,3.874,7.085,6.07,6.801,7.219
	C6.711,7.59,6.827,7.852,6.89,8.156c0.175,0.117,0.312,0.285,0.536,0.357c1.242,0.402,1.978-0.826,2.277-1.562
	c0.119-0.296,0.095-0.549,0.178-0.894c0.068-0.28,0.181-0.85,0.09-1.25C9.715,3.694,9.298,2.944,8.318,2.577
	C7.956,2.44,7.325,2.385,6.89,2.488C5.25,2.876,4.323,3.621,3.946,5.255c-0.215,0.928,0.384,1.362,0.535,1.92
	c0.091,0.338-0.122,0.581-0.179,0.804c-0.028,0-0.059,0-0.089,0C4.075,7.88,3.88,7.882,3.722,7.799
	c-0.345-0.18-0.706-0.604-0.85-0.982c-0.768-2.04,0.663-4.009,1.832-4.73c0.416-0.258,0.961-0.449,1.472-0.58
	C6.5,1.424,7.109,1.582,7.381,1.416z"/>
</svg>
